/* XPM */
static char *_602853128791[] = {
/* columns rows colors chars-per-pixel */
"32 32 3 1 ",
"  c #463B43",
". c #493E46",
"X c None",
/* pixels */
"XXXXXXXXXXXXXXXXXXXXXXXXXXXXXXXX",
"XXXXXXXXXXXXXXXXXXXXXXXXXXXXXXXX",
"XXXXXXXXXXXXXXXXXXXXXXXXXXXXXXXX",
"XXXXXXXXXXXXXXXXXXXXXXXXXXXXXXXX",
"XXXXXXXXXXXXXXXXXXXXXXXXXXXXXXXX",
"XXXXXX..X....XX..XXX...X..XXXXXX",
"XXXXXXX.X....XX.XXXX..XXXXXXXXXX",
"XXXXXXXXXXXXXXXXXXXXXXXXXXXXXXXX",
"XXXXXXXXXXXXXXXXXXXXXXXXXXXXXXXX",
"XXXXXXXXXXXXXXXXXXXXXXX  XXXXXXX",
"XXXXXXXXXXXXXXXXXXXXXX    XXXXXX",
"XXXXXXXXXXXXXXXXXXXXXXXXXX XXXXX",
"XXXXXXXXXXXXXXXXXXXXXXXXX   XXXX",
"XXXXXXXXXXXXXXXXXXXXXXXX     XXX",
"XXXXXXXXXXXXXXXXXXXXXXXX     XXX",
"XXXXXXXXXXXXXXXXXXXXXXXX     XXX",
"XXXXXXXXXXXXXXXXXXXXXXXXXX   XXX",
"XXXXXXXXXXXXXXX X     XX     XXX",
"XXXXXXXXXXXXXXX XX    X      XXX",
"XXXXXXXXXXXXXXXXXXXXXX       XXX",
"XXXXXXXXXXXXXXXXXXXXXX  X    XXX",
"XXXXXXXXXXXXXXXX  XXXX       XXX",
"XXXXXXXXXXXXXXXXX XXXX       XXX",
"XXXXXXXXXXXXXXX XX  XX        XX",
"XXXXXXXXXXXXXXXXXX  X      X  XX",
"XXXXXXXXXXXXXXXXXXXX      X  XXX",
"XXXXXXXXXXXXXXXXX        XX XXXX",
"XXXXXXXXXXXXXXXXXX      XX XXXXX",
"XXXXXXXXXXXXXXXXXX X  XXX XXXXXX",
"XXXXXXXXXXXXXXXXX  X XXXXXXXXXXX",
"XXXXXXXXXXXXXXX       XXXXXXXXXX",
"XXXXXXXXXXXXXX      XXXXXXXXXXXX"
};
