/* XPM */
static char *_602852870094[] = {
/* columns rows colors chars-per-pixel */
"64 64 3 1 ",
"  c #463B43",
". c #493E46",
"X c None",
/* pixels */
"XXXXXXXXXXXXXXXXXXXXXXXXXXX          XXXXXXXXXXXXXXXXXXXXXXXXXXX",
"XXXXXXXXXXXXXXXXXXXXXX   XXXXXXXXXXXXXX   XXXXXXXXXXXXXXXXXXXXXX",
"XXXXXXXXXXXXXXXXXXXX  XXXXXXXXXXXXXXXXXXXX  XXXXXXXXXXXXXXXXXXXX",
"XXXXXXXXXXXXXXXXXX XXXXXXXXXXXXXXXXXXXXXXXXXX XXXXXXXXXXXXXXXXXX",
"XXXXXXXXXXXXXXXX XXXXXXXXXXXXXXXXXXXXXXXXXXXXXX XXXXXXXXXXXXXXXX",
"XXXXXXXXXXXXXX  XXXXXXXXXXXXXXXXXXXXXXXXXXXXXXXX  XXXXXXXXXXXXXX",
"XXXXXXXXXXXXX XXXXXXXXXXXXXXXXXXXXXXXXXXXXXXXXXXXX XXXXXXXXXXXXX",
"XXXXXXXXXXX  XXXXXXXXXXXXXXXXXXXXXXXXXXXXXXXXXXXXXX  XXXXXXXXXXX",
"XXXXXXXXXX  XXXXXXXXXXXXXXXXXXXXXXXXXXXXXXXXXXXXXXXX  XXXXXXXXXX",
"XXXXXXXXX XXX...XX...X....X..X....X...X....XX.XX...XXX XXXXXXXXX",
"XXXXXXXX XXXX.XXXXXX.X..XXXX.X.XX.X.XXX..X.XX.XX.X.XXXX XXXXXXXX",
"XXXXXXX XXXXXXX.X..X.XXXX.XX.X.XX.X.XXX..X.XX.XX.X.XXXXX XXXXXXX",
"XXXXXXX XXXXX...X....X....XX.X.XX.X...XX...XX.XX.X.XXXXX XXXXXXX",
"XXXXXX XXXXXXXXXXXXXXXXXXXXXXXXXXXXXXXXXXXXXXXXXXXXXXXXXX XXXXXX",
"XXXXX XXXXXXXXXXXXXXXXXXXXXXXXXXXXXXXXXXXXXXXXXXXXXXXXXXXX XXXXX",
"XXXXX XXXXXXXXXXXXXXXXXXXXXXXXXXXXXXXXXXXXXXXXXXXXXXXXXXXX XXXXX",
"XXXX XXXXXXXXXXXXXXXXXXXXXXXXXXXXXXXXXXXXXXXXXXXXXXXXXXXXXX XXXX",
"XXXXXXXXXXXXXXXXXXXXXXXXXXXXXXXXXXXXXXXXXXXXXXXXXXXXXXXXXXXXXXXX",
"XXX XXXXXXXXXXXXXXXXXXXXXXXXXXXXXXXXXXXXXXXXXXXXXXXXXXXXXXXX XXX",
"XXXXXXXXXXXXXXXXXXXXXXXXXXXXXXXXXXXXXXXXXXXX X    XXXXXXXXXXXXXX",
"XX XXXXXXXXXXXXXXXXXXXXXXXXXXXXXXXXXXXXXXXXX    X   XXXXXXXXX XX",
"XX XXXXXXXXXXXXXXXXXXXXXXXXXXXXXXXXXXXXXXXXXX  X     XXXXXXXX XX",
"X XXXXXXXXXXXXXXXXXXXXXXXXXXXXXXXXXXXXXXXXXXXXXXXXX X  XXXXXXX X",
"X XXXXXXXXXXXXXXXXXXXXXXXXXXXXXXXXXXXXXXXXXXXXXX XXX   XXXXXXX X",
"X XXXXXXXXXXXXXXXXXXXXXXXXXXXXXXXXXXXXXXXXXXXXX  X      XXXXXX X",
"XXXXXXXXXXXXXXXXXXXXXXXXXXXXXXXXXXXXXXXXXXXXXXX  X       XXXXXXX",
" XXXXXXXXXXXXXXXXXXXXXXXXXXXXXXXXXXXXXXXXXXX XXXX        XXXXXX ",
" XXXXXXXXXXXXXXXXXXXXXXXXXXXXXXXXXXXXXXXXXXXXXXX          XXXXX ",
" XXXXXXXXXXXXXXXXXXXXXXXXXXXXXXXXXXXXXXXXXXX XX           XXXXX ",
" XXXXXXXXXXXXXXXXXXXXXXXXXXXXXXXXXXXXXXXXXXXXXX XX XX     XXXXX ",
" XXXXXXXXXXXXXXXXXXXXXXXXXXXXXXXXXXXXXXXXXXXXXXXX XX      XXXXX ",
" XXXXXXXXXXXXXXXXXXXXXXXXXXXXXXXXXXXXXXXXXXXXXXX          XXXXX ",
" XXXXXXXXXXXXXXXXXXXXXXXXXXXXXXXXXXXXXXXXX X XX      X    XXXXX ",
" XXXXXXXXXXXXXXXXXXXXXXXXXXXXXXXXXXXXXXXX   XX XXXX X     XXXXX ",
" XXXXXXXXXXXXXXXXXXXXXXXXXXXXX XXXXX       XX XX XX       XXXXX ",
" XXXXXXXXXXXXXXXXXXXXXXXXXXXXX  XXX   XXX  X  X       XX  XXXXX ",
" XXXXXXXXXXXXXXXXXXXXXXXXXXXXX  XXX         XXXX      X   XXXXX ",
" XXXXXXXXXXXXXXXXXXXXXXXXXXXX  XXXXXXXX   XXXX        X   XXXXX ",
"XXXXXXXXXXXXXXXXXXXXXXXXXXXXXXXXXXXXXXXXXXX    X  XX XX  XXXXXXX",
"X XXXXXXXXXXXXXXXXXXXXXXXXXXXXXXXXXXXXXXXXX    X  X  X   XXXXX X",
"X XXXXXXXXXXXXXXXXXXXXXXXXXXXXXXXX  XXXXXXXXX    XX  X   XXXXX X",
"X XXXXXXXXXXXXXXXXXXXXXXXXXXXXXXXXXXXXXXXXXXX   XX  X    XXXXX X",
"XX XXXXXXXXXXXXXXXXXXXXXXXXXXXX   XX XXXXXX  X  XX  X    XXXX XX",
"XX XXXXXXXXXXXXXXXXXXXXXXXXXXXX      XXXXX  X   X        XXXX XX",
"XXXXXXXXXXXXXXXXXXXXXXXXXXXXXXXXXXXXXXX  XXX             XXXXXXX",
"XXX XXXXXXXXXXXXXXXXXXXXXXXXXXXXX X    X XX X            XXX XXX",
"XXXXXXXXXXXXXXXXXXXXXXXXXXXXXXX  XX     XX  X           X XX XXX",
"XXXX XXXXXXXXXXXXXXXXXXXXXXXXXX XXXXXX  X  X           XX   XXXX",
"XXXXX XXXXXXXXXXXXXXXXXXXXXXXXXXXXX       XX          XXX  XXXXX",
"XXXXX XXXXXXXXXXXXXXXXXXXXXXXXXXXXXXX   XX   X       XXX   XXXXX",
"XXXXXX XXXXXXXXXXXXXXXXXXXXXXXXXXXXXXXXXX  X    X   XXXX  XXXXXX",
"XXXXXXX XXXXXXXXXXXXXXXXXXXXXXXXXXXXX XX  XX       XXXX  XXXXXXX",
"XXXXXXX XXXXXXXXXXXXXXXXXXXXXXXXXX X  X    X  X    XXX   XXXXXXX",
"XXXXXXXX XXXXXXXXXXXXXXXXXXXXXXXXX   X    X       XXX   XXXXXXXX",
"XXXXXXXXX XXXXXXXXXXXXXXXXXXXXXXXXX X           XXXX   XXXXXXXXX",
"XXXXXXXXXX  XXXXXXXXXXXXXXXXXXXXXXXX           XXXX   XXXXXXXXXX",
"XXXXXXXXXXX  XXXXXXXXXXXXXXXXXXXXXXX X       XXXXX   XXXXXXXXXXX",
"XXXXXXXXXXXXX XXXXXXXXXXXXXXXXXXXXXX XXX  XXXXXXXX XXXXXXXXXXXXX",
"XXXXXXXXXXXXXX  XXXXXXXXXXXXXXXXXXXX  XXX XXXXXX  XXXXXXXXXXXXXX",
"XXXXXXXXXXXXXXXX XXXXXXXXXXXXXXXX     XX  XXXXX XXXXXXXXXXXXXXXX",
"XXXXXXXXXXXXXXXXX  XXXXXXXXXXXX       X    XX  XXXXXXXXXXXXXXXXX",
"XXXXXXXXXXXXXXXXXXXX  XXXXXXXX              XXXXXXXXXXXXXXXXXXXX",
"XXXXXXXXXXXXXXXXXXXXXX   XX               XXXXXXXXXXXXXXXXXXXXXX",
"XXXXXXXXXXXXXXXXXXXXXXXXXX            XXXXXXXXXXXXXXXXXXXXXXXXXX"
};
